<?xml version="1.0" encoding="UTF-8"?>
<svg id="jufe_logo" xmlns="http://www.w3.org/2000/svg" version="1.1" viewBox="0 0 512 512" fill="#904a4b">
  <g id='xing'>
    <path d="M438.18,131.24c-.1,2.72,1.05,5.2,1.55,7.81.4,2.06-.97,4,1.76,4.67,2.93.73,11.18-2.55,15.13-2.87,6.07-.48,12.16.89,18.18,1.11,6.82.25,14.52-1.13,20.9-.57,3.22.27,5.99,1.29,7.42,4.36,1.71,3.69,1.91,19.8,1.42,24.3-.09.74,0,1.45-.87,1.78l-14.4-1.54c-8.79-.31-17.49.79-26.2,1.6-3.53.32-14.25,2.2-16.83,1.31-1.49-.51-4.35-3.47-6.19-3.44-3.17,1.84-5.18,6.26-3.52,9.94.61.77,3.05,1.18,4.07,1.28,12.64,1.24,27.45-.5,40.08-1.09,4.25-.2,8.32.8,12.34.58,6.55-.37,6.38-3.45,8.33,4.99,1.83,7.9.53,15.64,1,23.6.43,7.38,2.7,15.02,2.13,22.46-.15,1.97-2.07,10.56-3.17,11.81-1.49,1.68-7.66,0-10.41.3-2.18.24-4.12,1.35-6.45,1.57-15.86,1.47-35.53-.28-51.93-.05-10.28.15-21.26-.09-31.52.57-6.8.43-11.28,3.14-17.73,4.2-5.55.9-13.56,1.6-19.15,1.7-9.63.17-17.87-3.97-27.54-4.33-.95-6.76,3.38-14.09,2.6-20.52-1.25-10.34-.15-11.39,1.05-20.96.67-5.31.36-13.26,2.28-18.04.72-1.81,3.39-6.9,5.5-6.76,1.8.11,3.34,1.73,6.48,1.65,11.53-.3,22.84-3.52,34.22-4.31,3.54-.25,19.78.48,21.39-2.67.99-1.94-1.37-6.09-2.24-8.05-7.44.78-15.61-1.37-22.93-.53-9.67,1.13-21.21,3.45-31.01,2.71-2.24-.17-7.65-1.11-9.31-2.45-.58-.47-4.37-6.9-4.59-7.7-1.19-4.43,2.23-12.24,6-14.88,13.56-.66,27.08-1.56,40.54-3.21l21.42,1.89.71-.74c-.38-3.16,1.66-6.46-.2-9.27-2.03-2.1-10.62-.4-13.92-.52-3.59-.14-7.58-1.46-11.22-1.09-4.43.45-9.1,4.57-13.51,5.21-2.6.37-5.26-.11-7.82.2s-4.14,1.88-5.92,2.1c-1.11.14-7.19.12-7.8-.27-.63-.77-.83-1.8-1-2.75-1.68-9.73-2.12-20.55-.46-30.3.36-2.08,2.02-4.92,1.94-7.11-.05-1.32-1.66-3.21-1.94-4.92-.45-2.65.24-4.99-.83-7.73-.87-2.24-3.76-3.9-4.1-5.52-.4-3.76-.79-11.59,3.19-13.35,7.16-3.17,8.2,0,14.19-.25,4.2-.17,8.9-2.39,13.33-2.71s8.91.66,13.41.57c6.33-.11,13.21-.85,19.78-1.06,14.87-.47,30.02-1.86,44.87-2.19,8.96-.2,16.63,2.88,26.78,2.19,7.26-.5,18.56-5.36,24.98-4.17,11.89,2.19,3.94,19.6,2.66,26.48-.89,4.84-.31,9.5-.74,14.23-.35,3.81-1.88,7.71-2.48,11.43-.98,6.19-1.45,12.58-2.76,18.62-3.6,2.3-8.69,4.14-13.01,3.31-1.8-.33-4.14-1.98-5.98-2.58-7.45-2.35-16.84-.14-24.6.05-5.91.14-11.58-.73-17.41-.02l.04-.06ZM473.47,86.32c-6.51-.3-13.53-1.04-20.04-.53-10,.79-18.4,6.57-28.63,4.01-3.14-.79-5.52-2.67-8.8-2.97-11.3-1.02-22.95,1.26-34.23,1.66-3.36.11-13.78-2.02-14.71,2.92l-.56,20.58c6.86.17,13.74.3,20.61.51,20.59.64,38.41-1.16,58.81-2.65,5.44-.4,22.66.15,26.45-2.44,2.24-1.52.16-6.4,0-9.04-.27-4.28.62-7.89,1.09-12.06h.01ZM366.12,206.24c-2.54,6-4.85,12.38-1.45,18.55,1.14,2.07,7.16.02,9.58,0,8.84-.1,18.86,1.45,27.81,1.66s15.81-.59,24.09-1.09,14.18,2.46,22.45,2.13c3.83-.15,8-.36,11.71-.58,11.77-.71,8.26-12.53,4.88-19.75l-24.61-1.06c-10.61-1.86-21.17-3.63-32.08-2.66-5.82.52-9.53,3.06-16.07,2.69-5.27-.3-10.72-2.9-16.02-2.74-3.42.1-6.8,2.44-10.29,2.85h0Z"/>
    <path d="M296.19,60.11c-1.13.32-3.95,4.11-4.05,5.62-.25,3.9,2.17,3.55,2.97,5.08,1.2,2.28.78,8.2.84,10.98.36,18.01-4.02,35.4-4.83,53.46-.87,19.36,1.96,38.52-2.72,57.71-2.69,11.03-5.34,18.04-4.77,29.99.11,2.22,1.13,4.53,1.03,6.87-.42,9.05-9.72,8.96-12.89,16.31l-.69.14c-7.14-1-7.24-5.13-8.23-11.08-1.97-11.89,1.06-18.61.99-29.33-.01-2.09-.94-5.29-.97-7.49-.05-4.82,1.3-10.18,1.52-14.94.57-12.32-1.6-23.35-2.19-35.3-.59-11.95-.59-27.99,0-40.15.37-7.9,3.06-15.72,2.7-23.51-.27-5.92-2.19-12.12-1.6-18.19.41-4.14,2.7-8.83,3.14-12.9.42-3.78-.56-8.75.09-12.22.37-2.03,6.19-7.7,8.15-8.43,11.92-1.28,23.93-2.62,35.97-2.04,8.34.41,18.82,1.87,24.07,9.09.15,4.94,2.02,9.87,2.39,14.72,1.55,19.67-4.35,38.7-5.36,57.78-.26,4.96.27,10,0,14.97-.33,5.91-2.14,12.93-2.18,18.72-.04,6.33,1,13.17.59,19.81-.12,2.07-1.09,3.89-1.13,5.87-.14,6.69,5.86,10.49,5.92,17.64.05,5.03-2.58,8.51-3.17,12.33-.46,2.93.54,5.36.54,7.99,0,5.16-3.86,25.34-5.99,29.88-3.55,7.55-14.92,5.46-19.18-.47-3.97-5.53-2.77-22.19-2.7-29.43.09-9.1,1.21-18.7.99-27.78-.16-6.41-3.44-8.93-4.56-14.58-2.22-11.24-2.87-28.54-1.06-39.82,1.44-9,6.12-14.44,5.14-24.14-.3-2.88-2.03-6.6-2.09-9.17-.11-4.4,2.32-11.55,2.71-16.53.22-2.72-.1-5.81-.05-8.6s1.82-6.34-.78-8.8h-8.57Z"/>
    <path d="M463.74,27.11c7.06-.24,12.93,2.96,19.61,2.51,6.2-.41,8.65-2.79,15.24-.25s12.85,8.79,12.74,16.58c-.06,3.97-5.03,8.89-8.77,9.83-5.99,1.51-25.43.98-31.79-.19-3.78-.69-7.56-2.4-11.29-3.16-6.91-1.39-17.63-1.32-24.8-.9-6.76.4-14.32,3.21-20.82,2.69-7.99-.63-15.95-1.68-24.09-1.08-5.19.38-10.09,2.76-14.96,3.22-5.14.48-13.88-1.84-17.73-.09-2.56,1.16-4.12,4.01-7.54,2.38-1.76-.85-3.58-9.99-3.8-12.24-.41-4.17-.45-7.01,2.59-10.12,6.75-6.91,25.31-5.91,34.54-5.61,8.59.27,17.1.31,25.67.53,4.44.11,10.31,1.76,14.41,1.67,3.05-.06,7.09-2.3,10.77-2.65,4.16-.4,8.62.26,12.75-.07,5.74-.47,11.4-2.85,17.28-3.05h-.01Z"/>
  </g>
  <g id='ming'>
    <path d="M340.8,259.63c-1.54,14.94,8.86,7.61,17.99,8.48l21.31,1.7c5.45.62,9.66,3.85,15.3,2.07.42,6.95,1.99,11.24-3.45,16.6-3.36,3.31-7.53,6.31-12.36,6.41-6.76.15-5.18.19-11.35,1.97-6.86,1.98-13.58.94-20.61,1.31-4.14,6.3-3.83,8.7,3.71,10.02,9.35,1.62,29.86-1.75,36.56,4.09.73.64,1.04,2.03,1.87,2.95,1.5,1.63,6.36,5.11,6.96,6.41s.36,5.1.3,6.7c-.47,13.27-3.08,26.51-3.76,39.56-.45,8.6.53,17.67.01,26.22-.16,2.72-.4,7.58-2.41,9.35-1.6,1.39-10.6,4.48-12.9,4.74-5.04.59-10.33-1.08-14.93-.5-3.29.41-6.54,2.45-10.68,2.67-3.83.21-7.34-.99-11.09-.4-1.08.17-6.65,2.23-7.33,2.82-3.8,3.32,1.78,10.72,3.85,13.8,12.05,2.33,24.28-2.51,36.46-.14,7.22,1.4,14.13,8.25,14.77,15.71.76,8.78.51,27.71-2.14,35.87-5.16,15.88-12.42,19.59-28.24,22.03-18.37,2.82-42.17,1.92-60.32-1.41-2.97-.54-12.68,0-12.52-5.05.04-1.15,1.92-9.4,2.39-10.5,2.14-4.98,10.09-.92,13.99-.73,6.2.3,14.4-2.13,20.78-2.48,5.66-.31,11.8,1.92,17.01-.63,1.97-.97,3.64-3.19,5.81-3.83s4.25-.16,6.45-.5c2.91-.45,9.98-2.6,11.55-5.03,1.71-2.65,1.73-14.36.14-16.94-.77-1.23-11.25-1.18-13.11-.87-4,.67-3.54,3.88-10.72,3.17-4.3-.42-6.07-3.39-9.09-3.75-1.67-.2-5.25-.17-6.92.06-2.36.32-4.17,2.22-6.4,2.08-.71-.05-11.08-4.14-11.55-4.54-1.08-.95-1.15-2.35-1.1-3.7.26-6.36,3.42-16.01,4.21-23.1.59-5.29,2.9-12.67-4-13.5-2.97-.36-13.83-.56-16.5-.05-1.49.28-6.25,4.83-7.14,6.23-4.85,7.66-3.42,30.52-4.37,40.55-.71,7.48-2.8,12.23-2.65,19.77.14,6.88.36,14.29-2.28,20.76-.76,1.86-4.59,8.44-6.1,9.41-3.08,1.97-8.37,1.76-11.72.63s-2.51-3.52-2.4-6.74c.77-21.17,2.1-42.45,3.26-63.59.21-3.8-.4-8.05-.01-11.79.54-5.39,2.01-8.08,2.1-14.42.32-19.95,3.65-39.45,4.85-59.35.62-10.13.2-13.99,2.5-24.23.61-2.71.5-10.33,3.73-11.24,1.7-.48,4.62,0,6.46-.5,2.66-.71,5.63-2.04,8.8-2.96,9.36-2.67,17.84-5.73,27.91-3.6l1.42-.76c1.4-1.77.11-7.73-1.89-8.91s-9.95-.32-12.89-.48c-9.5-.48-20.01-.8-29.38-1.63-4.62-.41-6.6-1.34-7.17-6.2-.21-1.81-.38-9.11.04-10.54.62-2.04,6.81-2.36,8.89-2.87,11.76-2.9,21.85-8.11,34.35-5.81,2.35.43,4.05,2.18,6.81,1,1.6-.69.95-3.24,1.32-4.59.59-2.14,3.62-9.88,5.6-10.45,1.56-.46,9.11-.27,11.06-.05,3.7.43,7.17,2.88,10.97,3.21h.05ZM289.62,346.32c-.74,1.26.97,5.24,2.4,5.67,1.31.4,15.45.3,16.78-.14,3.06-.99,3.47-8.65,1.04-10.73-2.41.14-15.13-3.54-16.11-2.09-.57,1.78-.73,3.99-1.83,5.55-.68.97-2.17,1.55-2.28,1.73h0ZM341.76,341.47c-2.19.63-1.86,7.08-.71,8,1.8,1.42,4.31-.4,6.44-.61,5.16-.51,10.68,1.96,15.98,1.02.57-.83,4.11-6.72,4.07-7.14-.02-.31-.88-.84-1.31-.79l-24.49-.46h.01ZM288.82,389.37c.46-.37.56-1.29,1.55-1.92,5.52-3.5,15.24-.1,19.44-1.94,2.14-.94,2.18-9.74,1.35-11.49-1.08-2.25-11.38-1.86-13.93-1.62-3.31.3-5.14,2.32-7.5,2.66-3.8.56-4.99-2.41-7.39,2.22-1.18,2.27-1.62,4.37-1.15,6.92.19.98,1.73,5.18,2.43,5.6,1.05.64,4.21.38,5.2-.43h.01ZM338.71,387.39c0,1.3,11.45-1.4,12.64-1.54,3.74-.42,11.63.05,14.77-1.28,3.45-1.45,2.58-9.74-3.68-10.5-4.78-.58-14.82-.47-19.71-.05-1.13.1-2.25.43-3.36.66-.14.09-.67,1.13-.67,1.21v11.5h0Z"/>
    <path d="M473.65,300.4c1.28-1.26,3.38-2.25,4.63-3.66,5.2-5.86,4.67-21.85,4.26-29.38-.12-2.32-.72-5.62,2.43-5.15l16.62,1.61c.54,1.81.07,3.76.24,5.65.95,10.97,1.99,19.8.48,30.98-.41,3.01-3.06,5.65-4.32,8.51-2.66,5.99-3.43,13.14-4.82,19.51-2.72.84-5.06.4-7.75,1.61s-3.06,3.19-5.03,4.59c-7.27,5.18-14.52-3.89-20.3-2.13-.31.1-4.87,2.74-5.08,2.95-1.06,1.05-1.58,4.15-1.78,5.71-.76,5.7-1.66,15.15-1.71,20.79-.04,4.12,4.72,2.38,7.24,2.38,13.67.02,33.29-3.39,45.6,2.58,3.03,1.47,2.38,5.53,2.28,8.41-.62,18.22-2.25,36.36-2.12,54.53.15,18.82-.56,36.38-1.65,55.08-.22,3.92,1.58,15.5-3.49,16.29-16.53,2.61-13.89-13.32-16.64-24.47-.77-3.12-2.23-5.98-2.92-9.11-4.06-.67-7.94,1.18-11.97,1.03-7.76-.3-14.92-4.14-23.49-3.21-1.4.15-2.18,1.11-4.31,1.08-3.97-.06-8.52-2.9-12.84-3.24-2.8-.22-5.14.58-7.45.54-2.58-.04-6.34-1.56-9.14-1.63-2.44-.06-6.91,1.42-8.84-.76-2.59-2.91-3.32-12.32-2.15-16.01,1.35-1.89,24.3-1.78,28.14-1.92,7.01-.26,15.35.2,21.93-.28,2.02-.15,3.94-1.44,6.4-1.37,4.7.11,10.46,5.31,15.7,2.64.52-.83-.77-10.12-1.06-11.89-.24-1.39-.36-4.31-1.54-4.89-1.09-.54-5.72-.42-6.98-.02-1.99.62-3.83,4.15-5.32,4.83-2.13.98-7.63-1.08-10.42-1.21-1.96-.1-3.5.64-6.18.19-3.37-.58-4.73-2.48-7.47-3.76-8.95-4.21-21-3.26-30.67-3.57l-.79-.8c-.85-6.45-1.16-13.41,1.2-19.5,4.84-1.47,10.02.48,15.02.05,2.79-.25,5.99-2.13,8.02-2.13,2.5,0,5.96,1.87,8.56,2.14,6.55.71,13.48-2.09,20.32-1.6,7.58.56,20.23,5.25,18.41-7.21-.74-5.06-11.58-4.11-15.13-4.64-5.89-.88-11.66-2.85-17.69-3.17-9.63-.51-19.33,1.83-28.87,2.18-5,.19-7.27.26-6.56-5.5.3-2.45,1.93-9.32,2.69-11.75,1.52-4.9,3.7-3.95,7.32-5.51,3.39-1.46,6.19-3.32,10.12-3.52-.84-3.63,2.02-7.13,2.61-9.97.78-3.76-.71-7.49-.94-11.12-.45-6.71.83-15.04,1.09-21.9.76-20.12.69-40.56,4.31-60.39,5.2-3.89,11.4-5.15,17.73-3.92,6.71,1.31,2.6,6.04,2.06,10.33s.46,8.69.51,12.76-.8,16.74.63,19.69c.78,1.6,5.47,5.42,7.17,5.58,1.13.11,2.81-.83,4.21-.92,1.96-.11,5.92.41,7.39-.1,1.02-.35,1.39-2.18,2.14-2.93v.06Z"/>
  </g>
  <g id='yi'>
    <path d="M141.91,290.6c-.38.4-6.95-.47-8.13-.69-2.23-.41-6.98-2.51-8.11-2.49s-8.59,2.48-9.81,3.07c-.87.42-1.65.97-1.77,2.01-.28,2.85,4.33,4.74,6.64,4.51,5.22-.54,7.78-.85,13.27.71,1.58.46,8.47,3.23,8.89,4.48,1.02,5.5-1.36,9.78-2.18,15.02-6.86,1.88-13.15-1.51-18.88,4.4-8.34,8.59,12.39,6.66,14.76,8.95,1.13,3.53,6.18,7.97,5.19,11.53-.22.79-1.11,1.37-1.36,2.38-.37,1.51-.68,8.7-1.24,9.19l-20.49-1.51c-3.83,2.25-8.51,2.39-12.37,3.68-2.23.74-3.8,2.3-6.54,3.08-7.89,2.27-17.59,2.64-25.78,2.84l.32,1.65c2.92.99,5.98,1.71,9.05,2.08,15.56,1.88,32.86.06,48.62,1.65,1.99.25,3.32,2.22,4.14,3.89.99,2.01,3.47,10.72,3.34,12.74-.05.89-.47,1.89-.73,2.77-1.35,2.07-14.23,2.15-17.35,2.56-1.29.16-7.14,1.1-7.7,1.66l-5.05,28.37c-1.03,2.17-4.98,3.79-7,5.3s-8.56,5.98-9.69,7.42-1.72,10-1.36,12c.1.59.22,1.05.84,1.29l23.76-4.48c1.73-1.76.79-4.3,1.06-6.43s.98-4.73,1.09-6.93c.33-6.33-3.02-16.65,1.13-21.86s16.95-4.17,22.92-3.55c-.46,5.25-.36,10.51-.54,15.77-.24,6.61-.02,13.72-.53,20.32-.35,4.42-2.02,9.38-2.15,13.89-.37,12.41,2.92,24.18-1.62,36.9-1.49,4.16-4.14,3.05-7.66,3.57-3.17.47-5.5,2.04-8.62-.58-1.4-8.15-.64-17.23-2.01-25.27-.46-2.72-1.02-3.7-3.92-4.1-8.54-1.19-11.61.56-18.37,4.52-1.13.67-2.85.83-3.75,1.6-3.45,2.95-2.6,15.54-4.41,20.19-2.41,6.24-7.08,4.06-11.87,4.7-2.66.35-5.25,2.34-8.33,1.56-1.2-4.93,1.36-22.57-5.2-23.97-3.1-.66-8.59,1.76-12.11,1.03-11.72,2.18-25.67,5.82-37.51,6.35-5.56.25-7.7-4.78-8.67-9.5-1.51-7.34,1.98-13.21,9.37-14.96,14.44-3.42,29.79-3.42,44.09-5.65,1.06-.16,5.19-.85,5.74-1.2,1.65-1.02,1.25-5.25-.78-5.61-7.33-.22-14.61.97-21.95.57-8.06-.45-15.7-2.22-24.03-2.15-4.44.04-6.71,1.97-8.46-3.86-1.62-5.41-1.54-24.29,4.58-26.76l62.59-.52c2.96-.87,2.96-5.66,3.55-6.08.17-.12,3.68-.72,4.11-.72,1.8.01,3.88,1.83,5.41.35.93-.9,4.8-11.24,4.15-12.68-2.09-4.59-9.3.16-12.84.52-8.18.82-17.95-.24-26.2.54-4.28.41-9.4,2.03-13.98,2.6-10.3,1.29-20.76,1.25-31.14,1.06-.87-.54-.79-15.58-.61-17.83.15-1.71.59-5.6,2.14-6.41l56.68-3.76c-.02-1.1-1.36-1.55-1.84-2.44-1.18-2.19-.89-4.73-4.35-5.27-8.46-1.34-20.06.95-28.87-.05-2.82.59-19.33,1.21-20.44-.11-1.62-5.27-4.56-9.27-4.44-15.1.14-7.58,11.45-7.09,16.8-8.25,1.32-.84,1.18-6.9.41-8.38-1.45-1.84-10.19.22-12.75-1.42l-3.22-7.22c-.17-4.7-3.66-9.32,2.01-12.17,9.24-4.63,35.74-3.02,47.33-3.47,9.63-.37,20.45-.46,29.94-1.61,4.46-.54,8.62-2.75,12.36-3.17,2.77-.31,5.57,1.51,7.69-.3-4.42-6.82-12.08-7.45-19.54-7.24-12.57.35-29.17,1.71-41.67,3.24-7.82.95-22.26,5.21-29.37,4.22-9.12-1.28-7.65-11.02-10.47-17.59,3.38-.45,7.11-1.29,10.4-2.17,2.36-.63,5.16-2.29,7.56-2.6,4.11-.51,7.44,1.21,11.19,1.55,12.13,1.1,23.73-4.33,35.3-5.34,7.27-.63,13.15,2.04,19.24,2.17,3.36.07,7.55-1.91,11.2-2.2,7.22-.57,14.26.72,21.38,1.11,6.3.35,13.46-.8,19.56,1.3,2.13.73,2.41,6.48,2.08,8.54-.38,2.4-2.9,5.29-2.1,8.32v-.02ZM53.68,327.49c-2.51,10.54,1.2,10.87,10.45,10.19,3.96-.3,6.59-2.2,9.63-2.66,3.34-.51,15.69,1.2,17.09-1.63.68-1.37.5-5.78-1.16-6.34-1.14-.38-6.38-.19-7.86-.02-2.64.28-5.53,2.06-7.58,2.1s-3.96-1.63-4.79-1.63h-15.77Z"/>
    <path d="M247.14,279.49c.38.37,1.1,6.48,1.19,7.64.38,5.34,1.44,21.48.04,25.69-.63,1.91-2.53,3.78-3,6.09s.32,7.49-1.32,8.84c-1.55,1.28-7.52,1.39-9.62,1.35v3.75c-3.47-.11-6.97.14-10.45.02-2.91-.1-7.16-1.45-10.02-.43-1.02.36-1.32,1.42-2.01,1.73-2.25,1.06-7.17-1.08-9.89-1.32s-6.41-.16-9.1-.02c-1.73.09-12.1,1.23-12.76,1.67-2.88,1.97,3.34,4.35,5.04,5.03,6.28,2.51,24.55,5.56,31.34,5.57,3.69,0,8.78-1.99,12.26-1.58,1.77.21,4.42,2.46,7.08,3.08,3.18.74,6.44.69,9.68.74.48,3.9,2.56,11.42-.73,14.4-5.22,4.74-25.88,1.21-26.36,10.5-.11,2.17,2.24,2.5,2.79,3.4.62,1.03.27,3.66,1.16,4.31.63.45,6.93.9,8.75,1.29,3.14.66,12.38,2.86,13.83,5.42,2.6,4.62.22,12,.05,17.02-.58,17.28-.12,34.62-1.03,51.91-.56,10.71-2.38,21.34-2.18,32.09.07,4.06,1.71,7.56-.36,11.89-.73,1.54-2.82.37-3.92-.11-7.9-3.53-14.26-10.71-16.85-18.98-.37-1.2.17-3.27-1.11-3.7-2.3-.78-11.46,1.6-14.91,1.57-5.51-.04-12.34-1.93-18.15-2.2-8-.37-31.15,2.53-36.62-1.34-.52-.36-1.02-.79-1.32-1.35-1.19-2.15-.31-10.36.36-12.93.43-1.63,1.81-3.17,1.98-5.01.21-2.38-1.1-5.6-.52-8.22,7.32.51,14.47,2.25,21.73,3.14,4.32.53,9.69,1.36,13.84,1.67,9.29.69,19.91-.99,28.87,0,3.22.36,5.31,3.21,7.32-.16,4.12-6.92,1.63-10.39-5.46-12.39-8.3-2.34-20.95,1.02-30.2.25-3.74-.31-7.97-1.83-11.79-2.12-3.08-.24-6.69.37-9.63,0-1.81-.22-2.77-1.34-4.3-1.58-6.43-1.03-11.29,2.64-9.82-7.74.25-1.76,1.44-3.16,1.58-4.87.16-1.92-1.25-4.69-.04-5.89,14.66-3.13,30.19-3.55,45.19-2.39l20.8-2.64c2.85-10.1-6.04-8.39-12.52-9.9-3.68-.85-9.27-3.23-12.69-3.36-3.07-.11-7.9,1.88-11.24,2.39-7.11,1.06-18.34,1.24-25.54.71-.97-.07-1.97-.11-2.81-.68-1.78-2.48,1.16-17.74,3.66-19.38,6.46-1.57,12.83-2.72,19.46-1.93,4.48-2.88,9.63-3.78,14.92-3.79,1.28-.41,1.13-6.38.77-7.58-.76-2.51-9.43-3.31-11.94-3.58-5.89-.63-12.24-.53-18.18-1.08-1.24-.11-7.96-.73-8.22-1.14-.14-1.82-.14-3.7-.07-5.53.3-8.01.58-16,1.05-24.08.24-4.09-.46-8.86.05-12.78.22-1.68,3.85-10.49,4.84-11.74.71-.88,1.23-1.21,2.36-1.37,4.63-.71,10.16-.57,14.93-1.1,6.78-.77,15.34-2.71,21.99-2.61,3.85.06,8.44,2.02,11.72,2.1,1.93.05,4.06-1.08,5.89-1.1,1.61-.02,2.86.71,4.73.52,4.21-.42,7.69-2.97,6.12-7.64-.63-1.88-3.95-1.19-5.41-1.55-5.24-1.28-12.28-6.2-18.58-4.44-1.24.35-2.25,1.65-3.48,1.87-3.92.71-10.21,1.2-14.42,1.62-4.73.47-19.56,1.99-23.29.84-1.05-.32-6.85-4.57-7.21-5.62-1.58-4.57-1.91-15.19,2.79-18.11,3.03-1.88,10.71-1.29,14.23-.5,2.03.46,3.91,1.92,6.03,2.04,2.88.15,6.88-1.42,10.12-1.66,11.59-.82,26.14,1.08,37.97,1.65,4.32.21,10.41-.87,14.24,1.28,1.52.85,1.6,1.87,2.65,2.7s3.28,1.18,3.6,1.49l.06-.05Z"/>
  </g>
  <g id='lian'>
    <path d="M111.97,91.4c.36,1.15,3.94.87,5.1.82,13.84-.5,27.88-2.15,41.66-2.71,5.01-.21,13.36,2.25,17.57.99,3.33-1,2.23-7.81,2.51-10.31.22-1.92,2.04-14.8,2.67-15.25,1.89.28,2.95,1.73,5.06,1.65,1.39-.06,5.84-2.07,8.2-2.55,16.92-3.55,30.92-2.77,47.83-.01,3.9.63,6.95,2.76,11.06,1.5,1.62,4.12-.66,8.3-1.56,12.26-.97.1-1.66-.78-2.53-.95-8.28-1.58-18.72-.54-27.13-.1-3.58.19-12.99-.3-15.8,1.84-2.2,1.68-1.82,7.22-.26,9.35,3.65,5.03,20.39-.04,26.2-.04,2.72,0,6.3.88,9.1,1.11,1.51.12,9.05-.38,9.38.87-.43,3.32.32,14.84-1.97,16.73-5.21,4.27-30.74-.32-38.33,1.24l-7.86,9.25c1.77.61,3.74.06,5.57.31s3.44,1.34,5.39,1.56c3.83.43,7.48-.74,11.23-.53,5.65.32,10.97,3.79,17.04,2.75,1.34.46,2.61,5.63,3.47,7.23.94,1.76,3.85,4.37,4.16,5.51.53,1.88-1.51,5.1-2.08,7.08-1.11,3.86-2.95,9.92-1.75,13.82.46,1.49,2.29,2.27,2.71,3.19.74,1.62-1.98,9.05-2.36,11.54-.77,5.01-.53,10.39-1.13,15.45-.68,5.84-2.2,11.6-2.25,17.54,0,1.13-1.94,2.53-2.82,2.53h-39.31c-1.23,2.04-.06,10.99,1.96,11.68,1.72.58,6.69-.09,9,.09,5.29.4,11.51,2.07,16.57,2.17,2.04.04,4.18-.74,5.84-.56,3.17.36,5.77,5.29,9.93,4.28,2.18,11.08,2.76,22.43,2.44,33.69-1.08.84-2.44.97-3.74,1.06-2.98.25-14.24-.36-16.18-2.3-.57-.57-2.28-5.25-2.28-6v-14.44c-.33-.54-.73-.68-1.34-.79-9.71-1.76-19.59.17-23.51,10.16-1.52,3.89-1.51,10.94-3.01,13.57-1.99,3.48-9.48,1.29-12.72.8.98-5.5-1.34-8.93-2.75-13.56-.83-2.69-1.77-8.49-3.49-10.42-2.35-2.65-7.48,1.66-9.81,1.87-2.61.24-6.46-3.33-9.94-.82-5.4,3.9-2.79,15.39-4.37,21.27-1.08,2.49-13.79,1.96-16.5.68-1.16-4.18-3.02-8.18-4.25-12.32-.63-2.14-.51-5.48-1.84-6.71-1.18-1.09-16.75-4.69-18.08-4.12-5.13,2.22-.83,14.88-4.43,18.05-2.17,1.92-16.49,4.04-18.71,2.69-4.43-4.61-1.96-18.77-9.35-19.54-4.01-.42-8.85,1.66-13.27-.43-9.63,9.16-2.85,32.22-21.96,30.35-15.12-1.49-8.77-19.18-7.34-28.61.71-4.63-.37-9.83,2.71-13.72,5.31-1.61,10.14-4.49,15.43-6.12,4.32-1.34,15.07-4.4,19.14-4.92,1.78-.24,5.24.59,5.77.45,1.28-.36,1.37-4.78,0-5.24-2.43.37-5.2-.66-7.38-.63-6.92.07-17.25,4.26-24.06,3.19-1.81-.28-3.08-1.56-5.39-1.61-2.44-.06-4.75,1.16-7.19,1.09-.94-2.08-.04-3.68,0-5.57.05-3.05-.79-13.16,1.97-14.61.53-.28,1.92-.5,2.61-.59,12.02-1.72,25.81-4.02,37.9-3.26,1.42.09,8.3,2.34,8.3-.27v-9.09c0-1.36-7.27-1.89-8.8-1.91-11.12-.06-22.03,3.69-33.17,2.7-9.31-.83-5.04-3.97-5.62-9.89-.15-1.54-1.1-2.92-1.1-4.28,0-1.02,1.76-5.06,2.51-5.52,2.13-1.29,9.25-.4,12.21-.63,10.88-.84,18.82-2.95,30.51-2.7,1.41.02,3.26,1.31,3.47-.77.06-.66-.98-4.53-1.37-5.06-2.53-3.37-14.8-.67-18.67-.53-7.24.27-19.4.8-26.26,0-.78-.09-1.37-.06-1.84-.83v-15.51c2.34-2.24,6.55-6.75,9.89-6.74,9.98.05,16.22-.69,25.65-4.25,3.14-1.19,7.37-.51,6.71-5.32-9.24.19-18.78.99-27.82,2.93-4.17.89-7.53,3.23-12.01,2.4s-1.57-6.7-1.36-9.35c.57-7-3.07-12.73-.93-19.39,3.47-2.45,10.02,1.67,12.88-.1.53-.33.67-1.36,1.45-1.88,1.84-1.21,15.65-1.35,19.38-2.03,2.39-.43,2.53-1.42,3.59-3.36-4.8-3.07-11.11-.17-16.27-.25-2.15-.02-6.64-.84-8.86-1.34-1.37-.31-7.24-2.02-8-2.7-1.92-1.75-1.03-13.87-.52-16.81,1.81-.21,3.79.19,5.58-.04,7.01-.84,15.65-2.85,22.43-3.23,5.06-.28,22.12,1.62,26.93,3.07,2.07.62,3.84,1.68,5.15,3.42s8.85,15.84,8.85,17.35v8.02h-.02ZM177.74,106.1c-2.27.97-4.01,2.67-6.51,3.38-5.61,1.57-9.27.09-14.62-.16-9.53-.46-24.68,1.65-34.06,3.9-2.29.54-6.22,1.28-5.79,4.36.2,1.44,1.13,1.76,2.4,1.93,3.27.43,12.33-.28,16.06-.57,5.65-.42,10.73-2.08,16.53-1.55,2.4.22,5.47,1.47,8.07,1.44,4.9-.07,10.78-3.14,15.96-2.54l1.96-10.18h.01ZM144.47,140.49c-2.48.14-5.16.8-7.63.93-3.47.19-18.24-.92-19.44,3.02-2.36,7.79,5.74,7.39,10.85,7.11,10.23-.57,20-2.38,30.51-1.62,6.67.48,12.27,3.36,19.25,2.72,1.63-.15,3.08-.37,3.9-2.01.51-1.73-1.65-8.3-4.04-8.59-6.36-.32-12.76-.36-19.13-.66-5.06-.24-8.89-1.21-14.29-.9h.01ZM207.42,152.63h19.52l-.52-4.58c-5.91,1.88-5.5-4.27-10.97-4.41-1.08-.02-5.42.26-6.41.45-3.55.66-3.91,7.9-1.62,8.54h0ZM227.87,181.9c1.31-1.39.67-3.97-.66-5.22-2.65-2.5-15.71-3.32-19.26-2.66-.61.11-1.08.19-1.26.88-.33,1.87.19,3.94-.1,5.78-.25,1.58-1.47,2.06-1.57,3.5,4.17-.26,20.32.42,22.86-2.28h0ZM179.88,175.62c-3.69.9-6.8,2.24-10.6,3.03-7.43,1.56-19.07,3.42-26.57,3.91-8.54.56-17.61-.4-26.21,0-1.83-.1-2.35,5.25-1.56,5.36,6.74-.43,13.53-.26,20.28-.54,5.94-.25,11.56-1.42,17.64-1.05,3.21.19,6.26,1.14,9.66,1.09,2.92-.05,11.07-.67,13.76-1.21.74-.15,3.6-1.73,3.6-2.28v-8.31ZM178.28,205.04c-9.21-1.13-17.69-2.27-27.03-2.17-6.64.07-16.7-.14-22.98.56-4.66.51-11.54,4.52-16.53,5.29l-.32,2.74c8.77-1.39,17.56,3.13,25.94,2.66,6.39-.36,12.79-2.27,19.28-1.62l19.77,2.18,1.25-.9.62-8.74h0Z"/>
    <path d="M.79,265.41c-.66-.77,1.45-17.35,1.57-19.97.28-6.67-.45-13.71-.01-20.34.71-10.98,3.4-20,3.22-31.58-.31-19.65-.38-39.66-1.06-59.35-.45-12.62-2.75-25.98-2.71-38.51.04-14.37,2.93-28.14,4.77-42.29.53-4.09.3-8.36,1.24-12.39,3.01-1.11,6.75-2.03,9.55-3.55,1.5-.82,4.42-3.74,5.65-3.89,1.41-.17,4,.85,5.68.78,3.23-.14,7.79-2.06,11.38-2.53,15.7-2.07,31.82-3,47.59-4.82,3.68-.42,15.39.64,16.29-4.02s-2.64-7.76-.61-12.38c1.66-3.8,2.74-4.11,6.78-4.44s13.01.12,17.1.53c1.56.16,5.82,1.26,7.08,2.02,1.42.85,3.9,7.21,5.58,9.38,4.09,5.26,12.44,8.33,18.96,8.88,4.05.33,8.04-2.86,12.74-3.19,6.15-.43,9,1.97,13.92,2.19s10.18-1.42,15.55-1.13c12.5.71,25.94,2.06,38.51,1.65,1.4-.05,4.49-1.29,5.36-.05.2,7.03,1.41,13.94,2.7,20.85l-.58,1.09c-5.35-.9-11.08-.85-16.58-1.05-32.36-1.18-66.2,2.88-98.96,1.05-28.54,1.77-57.09,3.78-85.54,5.89-2.44.19-5.87-.42-8.02,0s-1.16,3.06-2.66,4.27c-5.19-3.68-6.69-1.35-7.22,4.04-1.03,10.35-1.76,22.72-2.17,33.12-.36,9.08,1.18,16.47,1.65,25.13.9,16.6-1.62,33.18-1.62,49.75,0,7.94.67,16.03.51,24.09-.19,8.75-.26,20.75-1.05,29.38-.37,4.06-2.49,8.16-2.69,12.29-.22,4.87,2.04,11.28,1.58,15.48-.17,1.6-3.26,9.25-4.14,10.86-2.92,5.4-14.26,3.97-19.3,2.77h-.02Z"/>
  </g>
</svg>

